<?xml version="1.0" encoding="UTF-8" standalone="no"?>
<!-- Generator: Adobe Illustrator 16.0.0, SVG Export Plug-In . SVG Version: 6.00 Build 0)  -->

<svg
   xmlns:dc="http://purl.org/dc/elements/1.1/"
   xmlns:cc="http://creativecommons.org/ns#"
   xmlns:rdf="http://www.w3.org/1999/02/22-rdf-syntax-ns#"
   xmlns:svg="http://www.w3.org/2000/svg"
   xmlns="http://www.w3.org/2000/svg"
   xmlns:sodipodi="http://sodipodi.sourceforge.net/DTD/sodipodi-0.dtd"
   xmlns:inkscape="http://www.inkscape.org/namespaces/inkscape"
   version="1.1"
   id="Capa_1"
   x="0px"
   y="0px"
   width="485.213px"
   height="485.212px"
   viewBox="0 0 485.213 485.212"
   style="enable-background:new 0 0 485.213 485.212;"
   xml:space="preserve"
   sodipodi:docname="clock.svg"
   inkscape:version="0.92.3 (2405546, 2018-03-11)"><metadata
   id="metadata41"><rdf:RDF><cc:Work
       rdf:about=""><dc:format>image/svg+xml</dc:format><dc:type
         rdf:resource="http://purl.org/dc/dcmitype/StillImage" /></cc:Work></rdf:RDF></metadata><defs
   id="defs39" /><sodipodi:namedview
   pagecolor="#ffffff"
   bordercolor="#666666"
   borderopacity="1"
   objecttolerance="10"
   gridtolerance="10"
   guidetolerance="10"
   inkscape:pageopacity="0"
   inkscape:pageshadow="2"
   inkscape:window-width="789"
   inkscape:window-height="480"
   id="namedview37"
   showgrid="false"
   inkscape:zoom="0.24319266"
   inkscape:cx="302.14923"
   inkscape:cy="98.610198"
   inkscape:window-x="373"
   inkscape:window-y="242"
   inkscape:window-maximized="0"
   inkscape:current-layer="Capa_1" />
<g
   id="g4"
   style="fill:#ffffff">
	<path
   d="M242.607,0C108.629,0,0.001,108.628,0.001,242.606c0,133.976,108.628,242.606,242.606,242.606   c133.978,0,242.604-108.631,242.604-242.606C485.212,108.628,376.585,0,242.607,0z M257.771,454.116v-29.557h-30.327v29.557   c-104.925-7.458-188.883-91.419-196.346-196.344h29.554v-30.327H31.098c7.463-104.928,91.421-188.886,196.346-196.349v29.554   h30.327V31.097c104.926,7.462,188.882,91.421,196.344,196.349h-29.552v30.327h29.552   C446.652,362.697,362.696,446.658,257.771,454.116z M354.226,178.163c2.072,3.615,0.83,8.266-2.782,10.368l-80.092,46.227   c0.691,2.577,1.582,5.066,1.582,7.848c0,16.762-13.581,30.324-30.326,30.324c-16.75,0-30.327-13.562-30.327-30.324l-82.299-47.503   c-7.257-4.203-9.743-13.474-5.554-20.729c4.174-7.285,13.459-9.771,20.715-5.565l82.775,47.798   c4.411-2.487,9.239-4.324,14.69-4.324c8.471,0,16.092,3.494,21.604,9.122l79.648-46.024   C347.416,173.277,352.064,174.521,354.226,178.163z"
   id="path2"
   style="fill:#ffffff" />
</g>
<g
   id="g6">
</g>
<g
   id="g8">
</g>
<g
   id="g10">
</g>
<g
   id="g12">
</g>
<g
   id="g14">
</g>
<g
   id="g16">
</g>
<g
   id="g18">
</g>
<g
   id="g20">
</g>
<g
   id="g22">
</g>
<g
   id="g24">
</g>
<g
   id="g26">
</g>
<g
   id="g28">
</g>
<g
   id="g30">
</g>
<g
   id="g32">
</g>
<g
   id="g34">
</g>
</svg>