<?xml version="1.0" encoding="UTF-8" standalone="no"?>
<!-- Kreita per Inkscape kaj vi. R. Fössmeier, 2013-06-22 -->

<svg
   xmlns:dc="http://purl.org/dc/elements/1.1/"
   xmlns:cc="http://creativecommons.org/ns#"
   xmlns:rdf="http://www.w3.org/1999/02/22-rdf-syntax-ns#"
   xmlns:svg="http://www.w3.org/2000/svg"
   xmlns="http://www.w3.org/2000/svg"
   xmlns:sodipodi="http://sodipodi.sourceforge.net/DTD/sodipodi-0.dtd"
   xmlns:inkscape="http://www.inkscape.org/namespaces/inkscape"
   version="1.1"
   width="450"
   height="450"
   id="svgbildo"
   sodipodi:docname="idsjmk.svg"
   inkscape:version="0.92.3 (2405546, 2018-03-11)"
   inkscape:export-filename="/home/fredy/git/idsjmk/images/icon128.png"
   inkscape:export-xdpi="27.306667"
   inkscape:export-ydpi="27.306667">
  <sodipodi:namedview
     pagecolor="#ffffff"
     bordercolor="#666666"
     borderopacity="1"
     objecttolerance="10"
     gridtolerance="10"
     guidetolerance="10"
     inkscape:pageopacity="0"
     inkscape:pageshadow="2"
     inkscape:window-width="838"
     inkscape:window-height="437"
     id="namedview9"
     showgrid="false"
     inkscape:zoom="0.1767767"
     inkscape:cx="1130.2281"
     inkscape:cy="27.581056"
     inkscape:window-x="422"
     inkscape:window-y="955"
     inkscape:window-maximized="0"
     inkscape:current-layer="svgbildo"
     fit-margin-top="0"
     fit-margin-left="0"
     fit-margin-right="0"
     fit-margin-bottom="0"
     inkscape:pagecheckerboard="false"
     inkscape:lockguides="false" />
  <defs
     id="difinoj" />
  <metadata
     id="metadatenoj">
    <rdf:RDF>
      <cc:Work
         rdf:about="">
        <dc:format>image/svg+xml</dc:format>
        <dc:type
           rdf:resource="http://purl.org/dc/dcmitype/StillImage" />
        <dc:title>Simbolo de la Brunna (Brno-a) publika trafiko</dc:title>
      </cc:Work>
    </rdf:RDF>
  </metadata>
  <title
     id="title4">Simbolo de la publika trafiko de Brno (CZ)</title>
  <g
     transform="translate(-142.74217,-232.07664)"
     id="veturilo"
     style="fill:#32cd32;fill-opacity:1">
    <path
       d="m 458.64285,649.9848 c -13.24069,-2.8542 -27.40075,-16.8472 -30.04335,-29.6889 -0.46959,-2.282 0.11195,-0.3759 -0.59283,-4.2662 -5.62926,0.1503 -21.38365,0.06 -43.16085,0.3518 -26.66955,0.3571 -48.78428,0.1263 -62.69636,-0.6545 l -23.64,-0.954 c -0.663,2.924 -0.5232,3.6352 -1.0889,5.6864 -0.40607,1.4723 -2.42791,6.6295 -5.54227,10.5758 -3.3635,5.7815 -7.45215,8.555 -11.51559,12.2846 -3.73169,3.4584 -11.65973,6.32102 -19.45994,6.85872 -7.80022,0.5377 -15.47261,-1.24952 -20.69303,-4.09082 -12.52861,-6.81891 -20.48758,-19.0542 -21.67772,-33.3249 -0.37817,-4.5346 -1.31188,-9.2861 -1.31188,-9.2861 0,0 -6.10114,-2.0418 -11.23785,-3.4065 -12.20119,-3.2414 -20.2219,-7.2913 -26.5127,-13.387 -8.60413,-8.3373 -9.74265,-11.759 -10.32678,-31.03541 -0.275,-9.075 -0.38142,-30.95596 -0.2365,-48.62435 l 0.26351,-32.12435 3.90774,-0.62487 c 8.05931,-1.28874 16.08291,-9.87405 20.21146,-21.62643 2.11086,-6.00878 2.32387,-8.66069 2.81861,-35.09109 0.29435,-15.7251 0.26428,-35.5251 -0.0668,-44 -0.52813,-13.51825 -0.93851,-16.29143 -3.34456,-22.60144 -3.49091,-9.1551 -10.25063,-16.59253 -16.67034,-18.34165 -2.41071,-0.65683 -5.0097,-1.37831 -5.77554,-1.6033 -1.11814,-0.32848 -1.28827,-2.42351 -0.8637,-10.63579 0.43207,-8.35718 1.02648,-11.27481 3.25151,-15.95987 6.19376,-13.04165 16.58936,-20.17406 35.2555,-24.18875 48.24524,-10.37653 105.99571,-16.59901 153.73205,-16.56427 71.18879,0.0518 153.14351,10.52106 180.01711,22.99615 9.3253,4.32895 13.9779,8.10311 18.8566,15.29644 4.5998,6.7821 6.34229,14.53921 6.0659,22.81071 -0.0992,2.96778 0.0775,7.02833 0.0775,7.02833 l -5.3174,1.79641 c -6.7282,2.27304 -11.3304,6.72452 -15.1587,14.66223 -4.9838,10.33349 -5.3094,13.7215 -5.4208,56.39589 -0.1141,43.70038 0.1261,45.96039 6.0246,56.68978 4.0035,7.28244 9.2171,11.96012 15.1223,13.5679 l 4.6,1.15713 v 45.54259 c 0,47.49947 -0.5223,49.46592 -4.8657,58.69111 -2.0201,4.2917 -11.9687,13.2015 -17.2852,15.4804 -5.1768,2.219 -15.7824,5.1882 -26.3686,7.3821 -4.2181,0.8742 -8.7188,1.6243 -9.2301,2.2841 -0.5112,0.6599 -0.7931,5.3312 -1.3979,9.7633 -2.3501,17.2218 -14.24032,30.6727 -30.41131,34.4028 -4.27459,0.986 -14.48697,1.1958 -18.29141,0.3757 z m 44,-176.29798 c 8.70665,-4.24036 14.02695,-11.40345 18.59735,-25.03893 2.0229,-6.03516 2.212,-8.93147 2.6447,-40.5 0.5213,-38.03833 -0.2813,-46.60045 -5.3358,-56.92295 -3.577,-7.30534 -9.4659,-14.02741 -14.77804,-16.86886 -4.01496,-2.14761 -5.01982,-2.20819 -36.62821,-2.20819 -24.32797,0 -33.43457,0.33105 -36.21678,1.31659 -4.98941,1.76739 -12.20035,9.27407 -15.47394,16.10855 -5.5988,11.689 -6.24366,17.94662 -5.9332,57.57486 0.26597,33.95083 0.40695,36.37975 2.47669,42.67156 2.75384,8.37143 9.25046,18.20661 14.18214,21.47024 5.54172,3.66734 10.3859,4.11072 43.46509,3.9783 24.09032,-0.0964 30.59097,-0.40792 33,-1.58117 z M 254.95244,473.0687 c 3.66239,-2.56523 7.1895,-11.506 9.23947,-23.42081 1.65299,-9.60749 2.3155,-70.09098 0.91956,-83.95111 -1.93895,-19.25164 -5.59106,-30.17091 -11.07222,-33.10434 -2.48776,-1.33141 -25.32266,-1.89661 -29.62897,-0.73337 -4.17852,1.12873 -7.8756,7.30669 -10.55202,17.63284 -1.7739,6.84407 -2.03392,11.95094 -2.45187,48.15598 -0.54718,47.39927 0.18403,55.98236 5.84987,68.66753 3.41959,7.65606 5.1486,8.33247 21.29894,8.33247 11.26796,0 14.60092,-0.32099 16.39724,-1.57919 z m 117.98025,-0.33318 c 11.26799,-5.80799 17.92112,-19.52002 19.15685,-39.4821 1.21215,-19.58114 1.22045,-56.71493 0.0144,-64.60553 -2.42455,-15.86316 -8.42616,-27.69912 -16.97034,-33.46795 0,0 -3.7433,-3.01877 -9.29206,-3.03193 -9.90233,-0.0235 -27.48605,-0.30161 -27.48605,-0.30161 -31.95239,-0.29836 -32.33498,-0.27772 -36.87677,1.99056 -9.24183,4.6156 -15.91563,15.10217 -18.86047,29.63558 -2.18662,10.7914 -1.62516,77.0011 0.7138,84.17535 4.59143,14.08316 12.48747,24.26594 20.37428,26.27475 1.06509,0.27129 16.24195,0.54545 33.72636,0.60925 29.47606,0.10756 32.05988,-0.0232 35.5,-1.79637 z"
       id="p_veturilo"
       style="fill:#32cd32;fill-opacity:1"
       inkscape:connector-curvature="0" />
  </g>
</svg>
