<?xml version="1.0" encoding="UTF-8" standalone="no"?>
<!-- Generator: Adobe Illustrator 12.0.0, SVG Export Plug-In . SVG Version: 6.00 Build 51448)  -->

<svg
   xmlns:dc="http://purl.org/dc/elements/1.1/"
   xmlns:cc="http://creativecommons.org/ns#"
   xmlns:rdf="http://www.w3.org/1999/02/22-rdf-syntax-ns#"
   xmlns:svg="http://www.w3.org/2000/svg"
   xmlns="http://www.w3.org/2000/svg"
   xmlns:sodipodi="http://sodipodi.sourceforge.net/DTD/sodipodi-0.dtd"
   xmlns:inkscape="http://www.inkscape.org/namespaces/inkscape"
   version="1.1"
   id="Layer_1"
   width="483.2226563"
   height="551.4306641"
   viewBox="0 0 483.2226563 551.4306641"
   overflow="visible"
   enable-background="new 0 0 483.2226563 551.4306641"
   xml:space="preserve"
   sodipodi:docname="wheelchair.svg"
   inkscape:version="0.92.3 (2405546, 2018-03-11)"><metadata
   id="metadata11"><rdf:RDF><cc:Work
       rdf:about=""><dc:format>image/svg+xml</dc:format><dc:type
         rdf:resource="http://purl.org/dc/dcmitype/StillImage" /></cc:Work></rdf:RDF></metadata><defs
   id="defs9" /><sodipodi:namedview
   pagecolor="#ffffff"
   bordercolor="#666666"
   borderopacity="1"
   objecttolerance="10"
   gridtolerance="10"
   guidetolerance="10"
   inkscape:pageopacity="0"
   inkscape:pageshadow="2"
   inkscape:window-width="789"
   inkscape:window-height="480"
   id="namedview7"
   showgrid="false"
   inkscape:zoom="0.42797765"
   inkscape:cx="241.61133"
   inkscape:cy="275.71533"
   inkscape:window-x="473"
   inkscape:window-y="156"
   inkscape:window-maximized="0"
   inkscape:current-layer="Layer_1" />
<path
   fill-rule="evenodd"
   clip-rule="evenodd"
   fill="#000000"
   d="M161.9882813,98.1240234  c24.9628906-2.3046875,44.3574219-23.8110352,44.3574219-48.9658203C206.3457031,22.0830078,184.2626953,0,157.1875,0  s-49.1572266,22.0830078-49.1572266,49.1582031c0,8.2568359,2.3037109,16.7055664,6.1445313,23.8105469l17.515625,246.4667969  l180.3964844,0.0488281l73.9912109,173.3652344l97.1445313-38.0976563l-15.0429688-35.8203125l-54.3662109,19.625  l-71.5908203-165.2802734l-167.7294922,1.1269531l-2.3027344-31.2128906l121.4228516,0.0483398v-46.1831055l-126.0546875-0.0493164  L161.9882813,98.1240234z"
   id="path2"
   style="fill:#ffffff" />
<path
   fill-rule="evenodd"
   clip-rule="evenodd"
   fill="#000000"
   d="M343.4199219,451.5908203  c-30.4472656,60.1875-94.1748047,99.8398438-162.1503906,99.8398438C81.4296875,551.4306641,0,470.0009766,0,370.1611328  c0-70.1005859,42.4853516-135.2436523,105.8818359-164.1210938l4.1025391,53.5375977  c-37.4970703,23.628418-60.6123047,66.262207-60.6123047,110.9506836c0,72.4267578,59.0712891,131.4970703,131.4970703,131.4970703  c66.2617188,0,122.7646484-50.8515625,130.4697266-116.0869141L343.4199219,451.5908203z"
   id="path4"
   style="fill:#ffffff" />
</svg>